<svg width="18" height="17" fill="none" version="1.1" viewBox="0 0 18 17" xmlns="http://www.w3.org/2000/svg">
 <path d="m3.5137 0.1c-1.6142 0-2.9137 1.2995-2.9137 2.9137v10.973c0 1.6142 1.2995 2.9137 2.9137 2.9137h10.973c1.6142 0 2.9137-1.2995 2.9137-2.9137v-10.973c0-1.6142-1.2995-2.9137-2.9137-2.9137zm1.3702 5.3762h5.7416c1.4418 0 2.5667 0.30822 2.5667 1.6332 0 0.79579-0.47094 1.1916-1.0001 1.3292 0.63336 0.18742 1.0918 0.69989 1.0918 1.5124v1.4917h-2.4167v-1.4166c0-0.43333-0.25825-0.6085-0.69998-0.6085h-2.8666v2.0251h-2.4167zm2.4167 1.7497v0.58347h2.9082c0.31658 0 0.50815-0.041731 0.50815-0.29173 0-0.25-0.19147-0.29173-0.50815-0.29173z" fill="#feda03" stroke-width=".105"/>
</svg>
